<svg width="805" height="102" viewBox="0 0 805 102" fill="none" xmlns="http://www.w3.org/2000/svg">
<path d="M0 18.8047V0.679688H9.60156V18.8047H0ZM9.60938 18.8047V0.679688H19.2109V18.8047H9.60938ZM19.2188 18.8047V0.679688H28.8203V18.8047H19.2188ZM28.8281 18.8047V0.679688H38.4297V18.8047H28.8281ZM38.4375 18.8047V0.679688H48.0391V18.8047H38.4375ZM48.0469 18.8047V0.679688H57.6484V18.8047H48.0469ZM63.1328 18.8047V9.23438H57.6562V8.08594H64.2812V18.8047H63.1328ZM60.6328 11.7344H57.6562V10.5859H61.7812V18.8047H60.6328V11.7344ZM86.4844 18.8047V0.679688H96.0859V18.8047H86.4844ZM96.0938 18.8047V0.679688H105.695V18.8047H96.0938ZM105.703 18.8047V0.679688H115.305V18.8047H105.703ZM115.312 18.8047V0.679688H124.914V18.8047H115.312ZM124.922 18.8047V0.679688H134.523V18.8047H124.922ZM140.008 18.8047V9.23438H134.531V8.08594H141.156V18.8047H140.008ZM137.508 11.7344H134.531V10.5859H138.656V18.8047H137.508V11.7344ZM153.75 18.8047V0.679688H163.352V18.8047H153.75ZM163.359 18.8047V0.679688H172.961V18.8047H163.359ZM172.969 18.8047V0.679688H182.57V18.8047H172.969ZM188.055 18.8047V9.23438H182.578V8.08594H189.203V18.8047H188.055ZM185.555 11.7344H182.578V10.5859H186.703V18.8047H185.555V11.7344ZM221.016 18.8047V0.679688H230.617V18.8047H221.016ZM230.625 18.8047V0.679688H240.227V18.8047H230.625ZM245.711 18.8047V9.23438H240.234V8.08594H246.859V18.8047H245.711ZM243.211 11.7344H240.234V10.5859H244.359V18.8047H243.211V11.7344ZM249.844 18.8047V0.679688H259.445V18.8047H249.844ZM259.453 18.8047V0.679688H269.055V18.8047H259.453ZM274.539 18.8047V9.23438H269.062V8.08594H275.688V18.8047H274.539ZM272.039 11.7344H269.062V10.5859H273.188V18.8047H272.039V11.7344ZM307.5 18.8047V0.679688H317.102V18.8047H307.5ZM317.109 18.8047V0.679688H326.711V18.8047H317.109ZM332.195 18.8047V9.23438H326.719V8.08594H333.344V18.8047H332.195ZM329.695 11.7344H326.719V10.5859H330.844V18.8047H329.695V11.7344ZM336.328 18.8047V0.679688H345.93V18.8047H336.328ZM345.938 18.8047V0.679688H355.539V18.8047H345.938ZM361.023 18.8047V9.23438H355.547V8.08594H362.172V18.8047H361.023ZM358.523 11.7344H355.547V10.5859H359.672V18.8047H358.523V11.7344ZM422.812 18.8047V0.679688H432.414V18.8047H422.812ZM432.422 18.8047V0.679688H442.023V18.8047H432.422ZM442.031 18.8047V0.679688H451.633V18.8047H442.031ZM451.641 18.8047V0.679688H461.242V18.8047H451.641ZM461.25 18.8047V0.679688H470.852V18.8047H461.25ZM470.859 18.8047V0.679688H480.461V18.8047H470.859ZM485.945 18.8047V9.23438H480.469V8.08594H487.094V18.8047H485.945ZM483.445 11.7344H480.469V10.5859H484.594V18.8047H483.445V11.7344ZM538.125 18.8047V0.679688H547.727V18.8047H538.125ZM547.734 18.8047V0.679688H557.336V18.8047H547.734ZM557.344 18.8047V0.679688H566.945V18.8047H557.344ZM566.953 18.8047V0.679688H576.555V18.8047H566.953ZM576.562 18.8047V0.679688H586.164V18.8047H576.562ZM586.172 18.8047V0.679688H595.773V18.8047H586.172ZM601.258 18.8047V9.23438H595.781V8.08594H602.406V18.8047H601.258ZM598.758 11.7344H595.781V10.5859H599.906V18.8047H598.758V11.7344ZM615 18.8047V0.679688H624.602V18.8047H615ZM624.609 18.8047V0.679688H634.211V18.8047H624.609ZM639.695 18.8047V9.23438H634.219V8.08594H640.844V18.8047H639.695ZM637.195 11.7344H634.219V10.5859H638.344V18.8047H637.195V11.7344ZM643.828 18.8047V0.679688H653.43V18.8047H643.828ZM653.438 18.8047V0.679688H663.039V18.8047H653.438ZM668.523 18.8047V9.23438H663.047V8.08594H669.672V18.8047H668.523ZM666.023 11.7344H663.047V10.5859H667.172V18.8047H666.023V11.7344ZM691.875 18.8047V0.679688H701.477V18.8047H691.875ZM701.484 18.8047V0.679688H711.086V18.8047H701.484ZM716.57 18.8047V9.23438H711.094V8.08594H717.719V18.8047H716.57ZM714.07 11.7344H711.094V10.5859H715.219V18.8047H714.07V11.7344ZM749.531 18.8047V0.679688H759.133V18.8047H749.531ZM759.141 18.8047V0.679688H768.742V18.8047H759.141ZM774.227 18.8047V9.23438H768.75V8.08594H775.375V18.8047H774.227ZM771.727 11.7344H768.75V10.5859H772.875V18.8047H771.727V11.7344ZM778.359 18.8047V0.679688H787.961V18.8047H778.359ZM787.969 18.8047V0.679688H797.57V18.8047H787.969ZM803.055 18.8047V9.23438H797.578V8.08594H804.203V18.8047H803.055ZM800.555 11.7344H797.578V10.5859H801.703V18.8047H800.555V11.7344ZM0 36.8047V18.6797H9.60156V36.8047H0ZM9.60938 36.8047V18.6797H19.2109V36.8047H9.60938ZM23.3438 36.8047H22.1953V26.0859H28.8203V27.2344H23.3438V36.8047ZM25.8438 29.7344V36.8047H24.6953V28.5859H28.8203V29.7344H25.8438ZM38.4297 27.2344H28.8281V26.0859H38.4297V27.2344ZM38.4297 29.7344H28.8281V28.5859H38.4297V29.7344ZM48.0391 27.2344H38.4375V26.0859H48.0391V27.2344ZM48.0391 29.7344H38.4375V28.5859H48.0391V29.7344ZM48.0469 36.8047V18.6797H57.6484V36.8047H48.0469ZM57.6562 36.8047V18.6797H67.2578V36.8047H57.6562ZM72.7422 36.8047V27.2344H67.2656V26.0859H73.8906V36.8047H72.7422ZM70.2422 29.7344H67.2656V28.5859H71.3906V36.8047H70.2422V29.7344ZM76.875 36.8047V18.6797H86.4766V36.8047H76.875ZM86.4844 36.8047V18.6797H96.0859V36.8047H86.4844ZM100.219 36.8047H99.0703V26.0859H105.695V27.2344H100.219V36.8047ZM102.719 29.7344V36.8047H101.57V28.5859H105.695V29.7344H102.719ZM115.305 27.2344H105.703V26.0859H115.305V27.2344ZM115.305 29.7344H105.703V28.5859H115.305V29.7344ZM124.914 27.2344H115.312V26.0859H124.914V27.2344ZM124.914 29.7344H115.312V28.5859H124.914V29.7344ZM124.922 36.8047V18.6797H134.523V36.8047H124.922ZM134.531 36.8047V18.6797H144.133V36.8047H134.531ZM149.617 36.8047V27.2344H144.141V26.0859H150.766V36.8047H149.617ZM147.117 29.7344H144.141V28.5859H148.266V36.8047H147.117V29.7344ZM153.75 36.8047V18.6797H163.352V36.8047H153.75ZM163.359 36.8047V18.6797H172.961V36.8047H163.359ZM172.969 36.8047V18.6797H182.57V36.8047H172.969ZM182.578 36.8047V18.6797H192.18V36.8047H182.578ZM197.664 36.8047V27.2344H192.188V26.0859H198.812V36.8047H197.664ZM195.164 29.7344H192.188V28.5859H196.312V36.8047H195.164V29.7344ZM221.016 36.8047V18.6797H230.617V36.8047H221.016ZM230.625 36.8047V18.6797H240.227V36.8047H230.625ZM245.711 36.8047V18.6797H246.859V36.8047H245.711ZM243.211 36.8047V18.6797H244.359V36.8047H243.211ZM253.969 18.6797V28.5859H259.445V29.7344H252.82V18.6797H253.969ZM256.469 26.0859H259.445V27.2344H255.32V18.6797H256.469V26.0859ZM259.453 36.8047V18.6797H269.055V36.8047H259.453ZM269.062 36.8047V18.6797H278.664V36.8047H269.062ZM284.148 36.8047V27.2344H278.672V26.0859H285.297V36.8047H284.148ZM281.648 29.7344H278.672V28.5859H282.797V36.8047H281.648V29.7344ZM297.891 36.8047V18.6797H307.492V36.8047H297.891ZM307.5 36.8047V18.6797H317.102V36.8047H307.5ZM321.234 36.8047H320.086V26.0859H326.711V27.2344H321.234V36.8047ZM323.734 29.7344V36.8047H322.586V28.5859H326.711V29.7344H323.734ZM332.195 18.6797H333.344V29.7344H326.719V28.5859H332.195V18.6797ZM329.695 26.0859V18.6797H330.844V27.2344H326.719V26.0859H329.695ZM336.328 36.8047V18.6797H345.93V36.8047H336.328ZM345.938 36.8047V18.6797H355.539V36.8047H345.938ZM361.023 36.8047V18.6797H362.172V36.8047H361.023ZM358.523 36.8047V18.6797H359.672V36.8047H358.523ZM413.203 36.8047V18.6797H422.805V36.8047H413.203ZM422.812 36.8047V18.6797H432.414V36.8047H422.812ZM436.547 36.8047H435.398V26.0859H442.023V27.2344H436.547V36.8047ZM439.047 29.7344V36.8047H437.898V28.5859H442.023V29.7344H439.047ZM451.633 27.2344H442.031V26.0859H451.633V27.2344ZM451.633 29.7344H442.031V28.5859H451.633V29.7344ZM461.242 27.2344H451.641V26.0859H461.242V27.2344ZM461.242 29.7344H451.641V28.5859H461.242V29.7344ZM470.852 27.2344H461.25V26.0859H470.852V27.2344ZM470.852 29.7344H461.25V28.5859H470.852V29.7344ZM470.859 36.8047V18.6797H480.461V36.8047H470.859ZM480.469 36.8047V18.6797H490.07V36.8047H480.469ZM495.555 36.8047V27.2344H490.078V26.0859H496.703V36.8047H495.555ZM493.055 29.7344H490.078V28.5859H494.203V36.8047H493.055V29.7344ZM538.125 36.8047V18.6797H547.727V36.8047H538.125ZM547.734 36.8047V18.6797H557.336V36.8047H547.734ZM561.469 36.8047H560.32V26.0859H566.945V27.2344H561.469V36.8047ZM563.969 29.7344V36.8047H562.82V28.5859H566.945V29.7344H563.969ZM576.555 27.2344H566.953V26.0859H576.555V27.2344ZM576.555 29.7344H566.953V28.5859H576.555V29.7344ZM586.164 27.2344H576.562V26.0859H586.164V27.2344ZM586.164 29.7344H576.562V28.5859H586.164V29.7344ZM586.172 36.8047V18.6797H595.773V36.8047H586.172ZM595.781 36.8047V18.6797H605.383V36.8047H595.781ZM610.867 36.8047V27.2344H605.391V26.0859H612.016V36.8047H610.867ZM608.367 29.7344H605.391V28.5859H609.516V36.8047H608.367V29.7344ZM615 36.8047V18.6797H624.602V36.8047H615ZM624.609 36.8047V18.6797H634.211V36.8047H624.609ZM639.695 36.8047V18.6797H640.844V36.8047H639.695ZM637.195 36.8047V18.6797H638.344V36.8047H637.195ZM643.828 36.8047V18.6797H653.43V36.8047H643.828ZM653.438 36.8047V18.6797H663.039V36.8047H653.438ZM668.523 36.8047V18.6797H669.672V36.8047H668.523ZM666.023 36.8047V18.6797H667.172V36.8047H666.023ZM696 18.6797V28.5859H701.477V29.7344H694.852V18.6797H696ZM698.5 26.0859H701.477V27.2344H697.352V18.6797H698.5V26.0859ZM701.484 36.8047V18.6797H711.086V36.8047H701.484ZM711.094 36.8047V18.6797H720.695V36.8047H711.094ZM726.18 36.8047V27.2344H720.703V26.0859H727.328V36.8047H726.18ZM723.68 29.7344H720.703V28.5859H724.828V36.8047H723.68V29.7344ZM739.922 36.8047V18.6797H749.523V36.8047H739.922ZM749.531 36.8047V18.6797H759.133V36.8047H749.531ZM763.266 36.8047H762.117V26.0859H768.742V27.2344H763.266V36.8047ZM765.766 29.7344V36.8047H764.617V28.5859H768.742V29.7344H765.766ZM774.227 18.6797H775.375V29.7344H768.75V28.5859H774.227V18.6797ZM771.727 26.0859V18.6797H772.875V27.2344H768.75V26.0859H771.727ZM778.359 36.8047V18.6797H787.961V36.8047H778.359ZM787.969 36.8047V18.6797H797.57V36.8047H787.969ZM803.055 36.8047V18.6797H804.203V36.8047H803.055ZM800.555 36.8047V18.6797H801.703V36.8047H800.555ZM0 54.8047V36.6797H9.60156V54.8047H0ZM9.60938 54.8047V36.6797H19.2109V54.8047H9.60938ZM24.6953 54.8047V36.6797H25.8438V54.8047H24.6953ZM22.1953 54.8047V36.6797H23.3438V54.8047H22.1953ZM48.0469 54.8047V36.6797H57.6484V54.8047H48.0469ZM57.6562 54.8047V36.6797H67.2578V54.8047H57.6562ZM72.7422 54.8047V36.6797H73.8906V54.8047H72.7422ZM70.2422 54.8047V36.6797H71.3906V54.8047H70.2422ZM76.875 54.8047V36.6797H86.4766V54.8047H76.875ZM86.4844 54.8047V36.6797H96.0859V54.8047H86.4844ZM96.0938 54.8047V36.6797H105.695V54.8047H96.0938ZM105.703 54.8047V36.6797H115.305V54.8047H105.703ZM115.312 54.8047V36.6797H124.914V54.8047H115.312ZM124.922 54.8047V36.6797H134.523V54.8047H124.922ZM134.531 54.8047V36.6797H144.133V54.8047H134.531ZM149.617 54.8047V36.6797H150.766V54.8047H149.617ZM147.117 54.8047V36.6797H148.266V54.8047H147.117ZM153.75 54.8047V36.6797H163.352V54.8047H153.75ZM163.359 54.8047V36.6797H172.961V54.8047H163.359ZM177.094 54.8047H175.945V44.0859H182.57V45.2344H177.094V54.8047ZM179.594 47.7344V54.8047H178.445V46.5859H182.57V47.7344H179.594ZM182.578 54.8047V36.6797H192.18V54.8047H182.578ZM192.188 54.8047V36.6797H201.789V54.8047H192.188ZM207.273 54.8047V45.2344H201.797V44.0859H208.422V54.8047H207.273ZM204.773 47.7344H201.797V46.5859H205.922V54.8047H204.773V47.7344ZM221.016 54.8047V36.6797H230.617V54.8047H221.016ZM230.625 54.8047V36.6797H240.227V54.8047H230.625ZM245.711 54.8047V36.6797H246.859V54.8047H245.711ZM243.211 54.8047V36.6797H244.359V54.8047H243.211ZM263.578 36.6797V46.5859H269.055V47.7344H262.43V36.6797H263.578ZM266.078 44.0859H269.055V45.2344H264.93V36.6797H266.078V44.0859ZM269.062 54.8047V36.6797H278.664V54.8047H269.062ZM278.672 54.8047V36.6797H288.273V54.8047H278.672ZM288.281 54.8047V36.6797H297.883V54.8047H288.281ZM297.891 54.8047V36.6797H307.492V54.8047H297.891ZM311.625 54.8047H310.477V44.0859H317.102V45.2344H311.625V54.8047ZM314.125 47.7344V54.8047H312.977V46.5859H317.102V47.7344H314.125ZM322.586 36.6797H323.734V47.7344H317.109V46.5859H322.586V36.6797ZM320.086 44.0859V36.6797H321.234V45.2344H317.109V44.0859H320.086ZM336.328 54.8047V36.6797H345.93V54.8047H336.328ZM345.938 54.8047V36.6797H355.539V54.8047H345.938ZM361.023 54.8047V36.6797H362.172V54.8047H361.023ZM358.523 54.8047V36.6797H359.672V54.8047H358.523ZM413.203 54.8047V36.6797H422.805V54.8047H413.203ZM422.812 54.8047V36.6797H432.414V54.8047H422.812ZM437.898 54.8047V36.6797H439.047V54.8047H437.898ZM435.398 54.8047V36.6797H436.547V54.8047H435.398ZM470.859 54.8047V36.6797H480.461V54.8047H470.859ZM480.469 54.8047V36.6797H490.07V54.8047H480.469ZM495.555 54.8047V36.6797H496.703V54.8047H495.555ZM493.055 54.8047V36.6797H494.203V54.8047H493.055ZM538.125 54.8047V36.6797H547.727V54.8047H538.125ZM547.734 54.8047V36.6797H557.336V54.8047H547.734ZM557.344 54.8047V36.6797H566.945V54.8047H557.344ZM566.953 54.8047V36.6797H576.555V54.8047H566.953ZM576.562 54.8047V36.6797H586.164V54.8047H576.562ZM586.172 54.8047V36.6797H595.773V54.8047H586.172ZM599.906 54.8047H598.758V44.0859H605.383V45.2344H599.906V54.8047ZM602.406 47.7344V54.8047H601.258V46.5859H605.383V47.7344H602.406ZM610.867 36.6797H612.016V47.7344H605.391V46.5859H610.867V36.6797ZM608.367 44.0859V36.6797H609.516V45.2344H605.391V44.0859H608.367ZM615 54.8047V36.6797H624.602V54.8047H615ZM624.609 54.8047V36.6797H634.211V54.8047H624.609ZM639.695 54.8047V36.6797H640.844V54.8047H639.695ZM637.195 54.8047V36.6797H638.344V54.8047H637.195ZM643.828 54.8047V36.6797H653.43V54.8047H643.828ZM653.438 54.8047V36.6797H663.039V54.8047H653.438ZM668.523 54.8047V36.6797H669.672V54.8047H668.523ZM666.023 54.8047V36.6797H667.172V54.8047H666.023ZM705.609 36.6797V46.5859H711.086V47.7344H704.461V36.6797H705.609ZM708.109 44.0859H711.086V45.2344H706.961V36.6797H708.109V44.0859ZM711.094 54.8047V36.6797H720.695V54.8047H711.094ZM720.703 54.8047V36.6797H730.305V54.8047H720.703ZM730.312 54.8047V36.6797H739.914V54.8047H730.312ZM739.922 54.8047V36.6797H749.523V54.8047H739.922ZM753.656 54.8047H752.508V44.0859H759.133V45.2344H753.656V54.8047ZM756.156 47.7344V54.8047H755.008V46.5859H759.133V47.7344H756.156ZM764.617 36.6797H765.766V47.7344H759.141V46.5859H764.617V36.6797ZM762.117 44.0859V36.6797H763.266V45.2344H759.141V44.0859H762.117ZM778.359 54.8047V36.6797H787.961V54.8047H778.359ZM787.969 54.8047V36.6797H797.57V54.8047H787.969ZM803.055 54.8047V36.6797H804.203V54.8047H803.055ZM800.555 54.8047V36.6797H801.703V54.8047H800.555ZM0 72.8047V54.6797H9.60156V72.8047H0ZM9.60938 72.8047V54.6797H19.2109V72.8047H9.60938ZM24.6953 72.8047V54.6797H25.8438V72.8047H24.6953ZM22.1953 72.8047V54.6797H23.3438V72.8047H22.1953ZM48.0469 72.8047V54.6797H57.6484V72.8047H48.0469ZM57.6562 72.8047V54.6797H67.2578V72.8047H57.6562ZM72.7422 72.8047V54.6797H73.8906V72.8047H72.7422ZM70.2422 72.8047V54.6797H71.3906V72.8047H70.2422ZM76.875 72.8047V54.6797H86.4766V72.8047H76.875ZM86.4844 72.8047V54.6797H96.0859V72.8047H86.4844ZM100.219 72.8047H99.0703V62.0859H105.695V63.2344H100.219V72.8047ZM102.719 65.7344V72.8047H101.57V64.5859H105.695V65.7344H102.719ZM115.305 63.2344H105.703V62.0859H115.305V63.2344ZM115.305 65.7344H105.703V64.5859H115.305V65.7344ZM124.914 63.2344H115.312V62.0859H124.914V63.2344ZM124.914 65.7344H115.312V64.5859H124.914V65.7344ZM124.922 72.8047V54.6797H134.523V72.8047H124.922ZM134.531 72.8047V54.6797H144.133V72.8047H134.531ZM149.617 72.8047V54.6797H150.766V72.8047H149.617ZM147.117 72.8047V54.6797H148.266V72.8047H147.117ZM153.75 72.8047V54.6797H163.352V72.8047H153.75ZM163.359 72.8047V54.6797H172.961V72.8047H163.359ZM178.445 72.8047V54.6797H179.594V72.8047H178.445ZM175.945 72.8047V54.6797H177.094V72.8047H175.945ZM186.703 54.6797V64.5859H192.18V65.7344H185.555V54.6797H186.703ZM189.203 62.0859H192.18V63.2344H188.055V54.6797H189.203V62.0859ZM192.188 72.8047V54.6797H201.789V72.8047H192.188ZM201.797 72.8047V54.6797H211.398V72.8047H201.797ZM216.883 72.8047V63.2344H211.406V62.0859H218.031V72.8047H216.883ZM214.383 65.7344H211.406V64.5859H215.531V72.8047H214.383V65.7344ZM221.016 72.8047V54.6797H230.617V72.8047H221.016ZM230.625 72.8047V54.6797H240.227V72.8047H230.625ZM245.711 72.8047V54.6797H246.859V72.8047H245.711ZM243.211 72.8047V54.6797H244.359V72.8047H243.211ZM273.188 54.6797V64.5859H278.664V65.7344H272.039V54.6797H273.188ZM275.688 62.0859H278.664V63.2344H274.539V54.6797H275.688V62.0859ZM278.672 72.8047V54.6797H288.273V72.8047H278.672ZM288.281 72.8047V54.6797H297.883V72.8047H288.281ZM302.016 72.8047H300.867V62.0859H307.492V63.2344H302.016V72.8047ZM304.516 65.7344V72.8047H303.367V64.5859H307.492V65.7344H304.516ZM312.977 54.6797H314.125V65.7344H307.5V64.5859H312.977V54.6797ZM310.477 62.0859V54.6797H311.625V63.2344H307.5V62.0859H310.477ZM336.328 72.8047V54.6797H345.93V72.8047H336.328ZM345.938 72.8047V54.6797H355.539V72.8047H345.938ZM361.023 72.8047V54.6797H362.172V72.8047H361.023ZM358.523 72.8047V54.6797H359.672V72.8047H358.523ZM413.203 72.8047V54.6797H422.805V72.8047H413.203ZM422.812 72.8047V54.6797H432.414V72.8047H422.812ZM437.898 72.8047V54.6797H439.047V72.8047H437.898ZM435.398 72.8047V54.6797H436.547V72.8047H435.398ZM470.859 72.8047V54.6797H480.461V72.8047H470.859ZM480.469 72.8047V54.6797H490.07V72.8047H480.469ZM495.555 72.8047V54.6797H496.703V72.8047H495.555ZM493.055 72.8047V54.6797H494.203V72.8047H493.055ZM538.125 72.8047V54.6797H547.727V72.8047H538.125ZM547.734 72.8047V54.6797H557.336V72.8047H547.734ZM561.469 72.8047H560.32V62.0859H566.945V63.2344H561.469V72.8047ZM563.969 65.7344V72.8047H562.82V64.5859H566.945V65.7344H563.969ZM576.555 63.2344H566.953V62.0859H576.555V63.2344ZM576.555 65.7344H566.953V64.5859H576.555V65.7344ZM586.164 63.2344H576.562V62.0859H586.164V63.2344ZM586.164 65.7344H576.562V64.5859H586.164V65.7344ZM586.172 72.8047V54.6797H595.773V72.8047H586.172ZM595.781 72.8047V54.6797H605.383V72.8047H595.781ZM610.867 72.8047V63.2344H605.391V62.0859H612.016V72.8047H610.867ZM608.367 65.7344H605.391V64.5859H609.516V72.8047H608.367V65.7344ZM615 72.8047V54.6797H624.602V72.8047H615ZM624.609 72.8047V54.6797H634.211V72.8047H624.609ZM639.695 72.8047V54.6797H640.844V72.8047H639.695ZM637.195 72.8047V54.6797H638.344V72.8047H637.195ZM643.828 72.8047V54.6797H653.43V72.8047H643.828ZM653.438 72.8047V54.6797H663.039V72.8047H653.438ZM668.523 72.8047V54.6797H669.672V72.8047H668.523ZM666.023 72.8047V54.6797H667.172V72.8047H666.023ZM715.219 54.6797V64.5859H720.695V65.7344H714.07V54.6797H715.219ZM717.719 62.0859H720.695V63.2344H716.57V54.6797H717.719V62.0859ZM720.703 72.8047V54.6797H730.305V72.8047H720.703ZM730.312 72.8047V54.6797H739.914V72.8047H730.312ZM744.047 72.8047H742.898V62.0859H749.523V63.2344H744.047V72.8047ZM746.547 65.7344V72.8047H745.398V64.5859H749.523V65.7344H746.547ZM755.008 54.6797H756.156V65.7344H749.531V64.5859H755.008V54.6797ZM752.508 62.0859V54.6797H753.656V63.2344H749.531V62.0859H752.508ZM778.359 72.8047V54.6797H787.961V72.8047H778.359ZM787.969 72.8047V54.6797H797.57V72.8047H787.969ZM803.055 72.8047V54.6797H804.203V72.8047H803.055ZM800.555 72.8047V54.6797H801.703V72.8047H800.555ZM0 90.8047V72.6797H9.60156V90.8047H0ZM9.60938 90.8047V72.6797H19.2109V90.8047H9.60938ZM19.2188 90.8047V72.6797H28.8203V90.8047H19.2188ZM28.8281 90.8047V72.6797H38.4297V90.8047H28.8281ZM38.4375 90.8047V72.6797H48.0391V90.8047H38.4375ZM48.0469 90.8047V72.6797H57.6484V90.8047H48.0469ZM61.7812 90.8047H60.6328V80.0859H67.2578V81.2344H61.7812V90.8047ZM64.2812 83.7344V90.8047H63.1328V82.5859H67.2578V83.7344H64.2812ZM72.7422 72.6797H73.8906V83.7344H67.2656V82.5859H72.7422V72.6797ZM70.2422 80.0859V72.6797H71.3906V81.2344H67.2656V80.0859H70.2422ZM76.875 90.8047V72.6797H86.4766V90.8047H76.875ZM86.4844 90.8047V72.6797H96.0859V90.8047H86.4844ZM101.57 90.8047V72.6797H102.719V90.8047H101.57ZM99.0703 90.8047V72.6797H100.219V90.8047H99.0703ZM124.922 90.8047V72.6797H134.523V90.8047H124.922ZM134.531 90.8047V72.6797H144.133V90.8047H134.531ZM149.617 90.8047V72.6797H150.766V90.8047H149.617ZM147.117 90.8047V72.6797H148.266V90.8047H147.117ZM153.75 90.8047V72.6797H163.352V90.8047H153.75ZM163.359 90.8047V72.6797H172.961V90.8047H163.359ZM178.445 90.8047V72.6797H179.594V90.8047H178.445ZM175.945 90.8047V72.6797H177.094V90.8047H175.945ZM196.312 72.6797V82.5859H201.789V83.7344H195.164V72.6797H196.312ZM198.812 80.0859H201.789V81.2344H197.664V72.6797H198.812V80.0859ZM201.797 90.8047V72.6797H211.398V90.8047H201.797ZM211.406 90.8047V72.6797H221.008V90.8047H211.406ZM221.016 90.8047V72.6797H230.617V90.8047H221.016ZM230.625 90.8047V72.6797H240.227V90.8047H230.625ZM245.711 90.8047V72.6797H246.859V90.8047H245.711ZM243.211 90.8047V72.6797H244.359V90.8047H243.211ZM278.672 90.8047V72.6797H288.273V90.8047H278.672ZM288.281 90.8047V72.6797H297.883V90.8047H288.281ZM303.367 90.8047V72.6797H304.516V90.8047H303.367ZM300.867 90.8047V72.6797H302.016V90.8047H300.867ZM336.328 90.8047V72.6797H345.93V90.8047H336.328ZM345.938 90.8047V72.6797H355.539V90.8047H345.938ZM355.547 90.8047V72.6797H365.148V90.8047H355.547ZM365.156 90.8047V72.6797H374.758V90.8047H365.156ZM374.766 90.8047V72.6797H384.367V90.8047H374.766ZM384.375 90.8047V72.6797H393.977V90.8047H384.375ZM393.984 90.8047V72.6797H403.586V90.8047H393.984ZM409.07 90.8047V81.2344H403.594V80.0859H410.219V90.8047H409.07ZM406.57 83.7344H403.594V82.5859H407.719V90.8047H406.57V83.7344ZM417.328 72.6797V82.5859H422.805V83.7344H416.18V72.6797H417.328ZM419.828 80.0859H422.805V81.2344H418.68V72.6797H419.828V80.0859ZM422.812 90.8047V72.6797H432.414V90.8047H422.812ZM432.422 90.8047V72.6797H442.023V90.8047H432.422ZM442.031 90.8047V72.6797H451.633V90.8047H442.031ZM451.641 90.8047V72.6797H461.242V90.8047H451.641ZM461.25 90.8047V72.6797H470.852V90.8047H461.25ZM470.859 90.8047V72.6797H480.461V90.8047H470.859ZM484.594 90.8047H483.445V80.0859H490.07V81.2344H484.594V90.8047ZM487.094 83.7344V90.8047H485.945V82.5859H490.07V83.7344H487.094ZM495.555 72.6797H496.703V83.7344H490.078V82.5859H495.555V72.6797ZM493.055 80.0859V72.6797H494.203V81.2344H490.078V80.0859H493.055ZM538.125 90.8047V72.6797H547.727V90.8047H538.125ZM547.734 90.8047V72.6797H557.336V90.8047H547.734ZM557.344 90.8047V72.6797H566.945V90.8047H557.344ZM566.953 90.8047V72.6797H576.555V90.8047H566.953ZM576.562 90.8047V72.6797H586.164V90.8047H576.562ZM586.172 90.8047V72.6797H595.773V90.8047H586.172ZM599.906 90.8047H598.758V80.0859H605.383V81.2344H599.906V90.8047ZM602.406 83.7344V90.8047H601.258V82.5859H605.383V83.7344H602.406ZM610.867 72.6797H612.016V83.7344H605.391V82.5859H610.867V72.6797ZM608.367 80.0859V72.6797H609.516V81.2344H605.391V80.0859H608.367ZM615 90.8047V72.6797H624.602V90.8047H615ZM624.609 90.8047V72.6797H634.211V90.8047H624.609ZM639.695 90.8047V72.6797H640.844V90.8047H639.695ZM637.195 90.8047V72.6797H638.344V90.8047H637.195ZM643.828 90.8047V72.6797H653.43V90.8047H643.828ZM653.438 90.8047V72.6797H663.039V90.8047H653.438ZM663.047 90.8047V72.6797H672.648V90.8047H663.047ZM672.656 90.8047V72.6797H682.258V90.8047H672.656ZM682.266 90.8047V72.6797H691.867V90.8047H682.266ZM691.875 90.8047V72.6797H701.477V90.8047H691.875ZM701.484 90.8047V72.6797H711.086V90.8047H701.484ZM716.57 90.8047V81.2344H711.094V80.0859H717.719V90.8047H716.57ZM714.07 83.7344H711.094V82.5859H715.219V90.8047H714.07V83.7344ZM720.703 90.8047V72.6797H730.305V90.8047H720.703ZM730.312 90.8047V72.6797H739.914V90.8047H730.312ZM745.398 90.8047V72.6797H746.547V90.8047H745.398ZM742.898 90.8047V72.6797H744.047V90.8047H742.898ZM778.359 90.8047V72.6797H787.961V90.8047H778.359ZM787.969 90.8047V72.6797H797.57V90.8047H787.969ZM803.055 90.8047V72.6797H804.203V90.8047H803.055ZM800.555 90.8047V72.6797H801.703V90.8047H800.555ZM4.125 90.6797V100.586H9.60156V101.734H2.97656V90.6797H4.125ZM6.625 98.0859H9.60156V99.2344H5.47656V90.6797H6.625V98.0859ZM19.2109 99.2344H9.60938V98.0859H19.2109V99.2344ZM19.2109 101.734H9.60938V100.586H19.2109V101.734ZM28.8203 99.2344H19.2188V98.0859H28.8203V99.2344ZM28.8203 101.734H19.2188V100.586H28.8203V101.734ZM38.4297 99.2344H28.8281V98.0859H38.4297V99.2344ZM38.4297 101.734H28.8281V100.586H38.4297V101.734ZM48.0391 99.2344H38.4375V98.0859H48.0391V99.2344ZM48.0391 101.734H38.4375V100.586H48.0391V101.734ZM57.6484 99.2344H48.0469V98.0859H57.6484V99.2344ZM57.6484 101.734H48.0469V100.586H57.6484V101.734ZM63.1328 90.6797H64.2812V101.734H57.6562V100.586H63.1328V90.6797ZM60.6328 98.0859V90.6797H61.7812V99.2344H57.6562V98.0859H60.6328ZM81 90.6797V100.586H86.4766V101.734H79.8516V90.6797H81ZM83.5 98.0859H86.4766V99.2344H82.3516V90.6797H83.5V98.0859ZM96.0859 99.2344H86.4844V98.0859H96.0859V99.2344ZM96.0859 101.734H86.4844V100.586H96.0859V101.734ZM101.57 90.6797H102.719V101.734H96.0938V100.586H101.57V90.6797ZM99.0703 98.0859V90.6797H100.219V99.2344H96.0938V98.0859H99.0703ZM129.047 90.6797V100.586H134.523V101.734H127.898V90.6797H129.047ZM131.547 98.0859H134.523V99.2344H130.398V90.6797H131.547V98.0859ZM144.133 99.2344H134.531V98.0859H144.133V99.2344ZM144.133 101.734H134.531V100.586H144.133V101.734ZM149.617 90.6797H150.766V101.734H144.141V100.586H149.617V90.6797ZM147.117 98.0859V90.6797H148.266V99.2344H144.141V98.0859H147.117ZM157.875 90.6797V100.586H163.352V101.734H156.727V90.6797H157.875ZM160.375 98.0859H163.352V99.2344H159.227V90.6797H160.375V98.0859ZM172.961 99.2344H163.359V98.0859H172.961V99.2344ZM172.961 101.734H163.359V100.586H172.961V101.734ZM178.445 90.6797H179.594V101.734H172.969V100.586H178.445V90.6797ZM175.945 98.0859V90.6797H177.094V99.2344H172.969V98.0859H175.945ZM205.922 90.6797V100.586H211.398V101.734H204.773V90.6797H205.922ZM208.422 98.0859H211.398V99.2344H207.273V90.6797H208.422V98.0859ZM221.008 99.2344H211.406V98.0859H221.008V99.2344ZM221.008 101.734H211.406V100.586H221.008V101.734ZM230.617 99.2344H221.016V98.0859H230.617V99.2344ZM230.617 101.734H221.016V100.586H230.617V101.734ZM240.227 99.2344H230.625V98.0859H240.227V99.2344ZM240.227 101.734H230.625V100.586H240.227V101.734ZM245.711 90.6797H246.859V101.734H240.234V100.586H245.711V90.6797ZM243.211 98.0859V90.6797H244.359V99.2344H240.234V98.0859H243.211ZM282.797 90.6797V100.586H288.273V101.734H281.648V90.6797H282.797ZM285.297 98.0859H288.273V99.2344H284.148V90.6797H285.297V98.0859ZM297.883 99.2344H288.281V98.0859H297.883V99.2344ZM297.883 101.734H288.281V100.586H297.883V101.734ZM303.367 90.6797H304.516V101.734H297.891V100.586H303.367V90.6797ZM300.867 98.0859V90.6797H302.016V99.2344H297.891V98.0859H300.867ZM340.453 90.6797V100.586H345.93V101.734H339.305V90.6797H340.453ZM342.953 98.0859H345.93V99.2344H341.805V90.6797H342.953V98.0859ZM355.539 99.2344H345.938V98.0859H355.539V99.2344ZM355.539 101.734H345.938V100.586H355.539V101.734ZM365.148 99.2344H355.547V98.0859H365.148V99.2344ZM365.148 101.734H355.547V100.586H365.148V101.734ZM374.758 99.2344H365.156V98.0859H374.758V99.2344ZM374.758 101.734H365.156V100.586H374.758V101.734ZM384.367 99.2344H374.766V98.0859H384.367V99.2344ZM384.367 101.734H374.766V100.586H384.367V101.734ZM393.977 99.2344H384.375V98.0859H393.977V99.2344ZM393.977 101.734H384.375V100.586H393.977V101.734ZM403.586 99.2344H393.984V98.0859H403.586V99.2344ZM403.586 101.734H393.984V100.586H403.586V101.734ZM409.07 90.6797H410.219V101.734H403.594V100.586H409.07V90.6797ZM406.57 98.0859V90.6797H407.719V99.2344H403.594V98.0859H406.57ZM426.938 90.6797V100.586H432.414V101.734H425.789V90.6797H426.938ZM429.438 98.0859H432.414V99.2344H428.289V90.6797H429.438V98.0859ZM442.023 99.2344H432.422V98.0859H442.023V99.2344ZM442.023 101.734H432.422V100.586H442.023V101.734ZM451.633 99.2344H442.031V98.0859H451.633V99.2344ZM451.633 101.734H442.031V100.586H451.633V101.734ZM461.242 99.2344H451.641V98.0859H461.242V99.2344ZM461.242 101.734H451.641V100.586H461.242V101.734ZM470.852 99.2344H461.25V98.0859H470.852V99.2344ZM470.852 101.734H461.25V100.586H470.852V101.734ZM480.461 99.2344H470.859V98.0859H480.461V99.2344ZM480.461 101.734H470.859V100.586H480.461V101.734ZM485.945 90.6797H487.094V101.734H480.469V100.586H485.945V90.6797ZM483.445 98.0859V90.6797H484.594V99.2344H480.469V98.0859H483.445ZM542.25 90.6797V100.586H547.727V101.734H541.102V90.6797H542.25ZM544.75 98.0859H547.727V99.2344H543.602V90.6797H544.75V98.0859ZM557.336 99.2344H547.734V98.0859H557.336V99.2344ZM557.336 101.734H547.734V100.586H557.336V101.734ZM566.945 99.2344H557.344V98.0859H566.945V99.2344ZM566.945 101.734H557.344V100.586H566.945V101.734ZM576.555 99.2344H566.953V98.0859H576.555V99.2344ZM576.555 101.734H566.953V100.586H576.555V101.734ZM586.164 99.2344H576.562V98.0859H586.164V99.2344ZM586.164 101.734H576.562V100.586H586.164V101.734ZM595.773 99.2344H586.172V98.0859H595.773V99.2344ZM595.773 101.734H586.172V100.586H595.773V101.734ZM601.258 90.6797H602.406V101.734H595.781V100.586H601.258V90.6797ZM598.758 98.0859V90.6797H599.906V99.2344H595.781V98.0859H598.758ZM619.125 90.6797V100.586H624.602V101.734H617.977V90.6797H619.125ZM621.625 98.0859H624.602V99.2344H620.477V90.6797H621.625V98.0859ZM634.211 99.2344H624.609V98.0859H634.211V99.2344ZM634.211 101.734H624.609V100.586H634.211V101.734ZM639.695 90.6797H640.844V101.734H634.219V100.586H639.695V90.6797ZM637.195 98.0859V90.6797H638.344V99.2344H634.219V98.0859H637.195ZM647.953 90.6797V100.586H653.43V101.734H646.805V90.6797H647.953ZM650.453 98.0859H653.43V99.2344H649.305V90.6797H650.453V98.0859ZM663.039 99.2344H653.438V98.0859H663.039V99.2344ZM663.039 101.734H653.438V100.586H663.039V101.734ZM672.648 99.2344H663.047V98.0859H672.648V99.2344ZM672.648 101.734H663.047V100.586H672.648V101.734ZM682.258 99.2344H672.656V98.0859H682.258V99.2344ZM682.258 101.734H672.656V100.586H682.258V101.734ZM691.867 99.2344H682.266V98.0859H691.867V99.2344ZM691.867 101.734H682.266V100.586H691.867V101.734ZM701.477 99.2344H691.875V98.0859H701.477V99.2344ZM701.477 101.734H691.875V100.586H701.477V101.734ZM711.086 99.2344H701.484V98.0859H711.086V99.2344ZM711.086 101.734H701.484V100.586H711.086V101.734ZM716.57 90.6797H717.719V101.734H711.094V100.586H716.57V90.6797ZM714.07 98.0859V90.6797H715.219V99.2344H711.094V98.0859H714.07ZM724.828 90.6797V100.586H730.305V101.734H723.68V90.6797H724.828ZM727.328 98.0859H730.305V99.2344H726.18V90.6797H727.328V98.0859ZM739.914 99.2344H730.312V98.0859H739.914V99.2344ZM739.914 101.734H730.312V100.586H739.914V101.734ZM745.398 90.6797H746.547V101.734H739.922V100.586H745.398V90.6797ZM742.898 98.0859V90.6797H744.047V99.2344H739.922V98.0859H742.898ZM782.484 90.6797V100.586H787.961V101.734H781.336V90.6797H782.484ZM784.984 98.0859H787.961V99.2344H783.836V90.6797H784.984V98.0859ZM797.57 99.2344H787.969V98.0859H797.57V99.2344ZM797.57 101.734H787.969V100.586H797.57V101.734ZM803.055 90.6797H804.203V101.734H797.578V100.586H803.055V90.6797ZM800.555 98.0859V90.6797H801.703V99.2344H797.578V98.0859H800.555Z" fill="#47FFB0"/>
</svg>
